<svg xmlns="http://www.w3.org/2000/svg" xmlns:xlink="http://www.w3.org/1999/xlink" xmlns:lucid="lucid" width="2123" height="552.6"><g transform="translate(-138.5 -223.70000000000027)" lucid:page-tab-id="vHpWTzjAAs0~"><path d="M160 400v-74a6 6 0 0 1 6-6h268a6 6 0 0 1 6 6v74z" stroke="#4a5c5c" stroke-width="3" fill="#e81313"/><path d="M440 400v274a6 6 0 0 1-6 6H166a6 6 0 0 1-6-6V400z" stroke="#4a5c5c" stroke-width="3" fill-opacity="0"/><use xlink:href="#a" transform="matrix(1,0,0,1,160,320) translate(25.103834484896794 31.231065639117723)"/><use xlink:href="#b" transform="matrix(1,0,0,1,160,320) translate(81.61858704638733 31.231065639117723)"/><use xlink:href="#c" transform="matrix(1,0,0,1,160,320) translate(213.82963688841645 31.231065639117723)"/><use xlink:href="#d" transform="matrix(1,0,0,1,160,320) translate(75.76113547110756 59.03786872176455)"/><path d="M520 400v-74a6 6 0 0 1 6-6h268a6 6 0 0 1 6 6v74z" stroke="#4a5c5c" stroke-width="3" fill="#e81313"/><path d="M800 400v274a6 6 0 0 1-6 6H526a6 6 0 0 1-6-6V400z" stroke="#4a5c5c" stroke-width="3" fill-opacity="0"/><use xlink:href="#a" transform="matrix(1,0,0,1,520,320) translate(31.411859258275 45.134467180441135)"/><use xlink:href="#e" transform="matrix(1,0,0,1,520,320) translate(87.92661181976554 45.134467180441135)"/><path d="M880 325.2v-74a6 6 0 0 1 6-6h268a6 6 0 0 1 6 6v74z" stroke="#4a5c5c" stroke-width="3" fill="#e81313"/><path d="M1160 325.2v423.6a6 6 0 0 1-6 6H886a6 6 0 0 1-6-6V325.2z" stroke="#4a5c5c" stroke-width="3" fill-opacity="0"/><use xlink:href="#f" transform="matrix(1,0,0,1,880,245.20000000000027) translate(15.448694525644441 31.231065639117723)"/><use xlink:href="#g" transform="matrix(1,0,0,1,880,245.20000000000027) translate(123.26442407062922 31.231065639117723)"/><use xlink:href="#h" transform="matrix(1,0,0,1,880,245.20000000000027) translate(107.91275153541795 59.03786872176455)"/><path d="M1240 400v-74a6 6 0 0 1 6-6h268a6 6 0 0 1 6 6v74z" stroke="#4a5c5c" stroke-width="3" fill="#e81313"/><path d="M1520 400v274a6 6 0 0 1-6 6h-268a6 6 0 0 1-6-6V400z" stroke="#4a5c5c" stroke-width="3" fill-opacity="0"/><use xlink:href="#i" transform="matrix(1,0,0,1,1240,320) translate(28.25784687158591 31.231065639117723)"/><use xlink:href="#j" transform="matrix(1,0,0,1,1240,320) translate(101.44380776271886 31.231065639117723)"/><use xlink:href="#c" transform="matrix(1,0,0,1,1240,320) translate(210.67562450172733 31.231065639117723)"/><use xlink:href="#k" transform="matrix(1,0,0,1,1240,320) translate(95.0714153896123 59.03786872176455)"/><path d="M1600 400v-74a6 6 0 0 1 6-6h268a6 6 0 0 1 6 6v74z" stroke="#4a5c5c" stroke-width="3" fill="#e81313"/><path d="M1880 400v274a6 6 0 0 1-6 6h-268a6 6 0 0 1-6-6V400z" stroke="#4a5c5c" stroke-width="3" fill-opacity="0"/><use xlink:href="#i" transform="matrix(1,0,0,1,1600,320) translate(21.209594701331696 31.231065639117723)"/><use xlink:href="#l" transform="matrix(1,0,0,1,1600,320) translate(94.39555559246465 31.231065639117723)"/><use xlink:href="#c" transform="matrix(1,0,0,1,1600,320) translate(217.72387667198154 31.231065639117723)"/><use xlink:href="#m" transform="matrix(1,0,0,1,1600,320) translate(76.43699526825523 59.03786872176455)"/><path d="M1960 400v-74a6 6 0 0 1 6-6h268a6 6 0 0 1 6 6v74z" stroke="#4a5c5c" stroke-width="3" fill="#e81313"/><path d="M2240 400v274a6 6 0 0 1-6 6h-268a6 6 0 0 1-6-6V400z" stroke="#4a5c5c" stroke-width="3" fill-opacity="0"/><use xlink:href="#n" transform="matrix(1,0,0,1,1960,320) translate(59.733603138748634 31.231065639117723)"/><use xlink:href="#o" transform="matrix(1,0,0,1,1960,320) translate(179.1998682345646 31.231065639117723)"/><use xlink:href="#p" transform="matrix(1,0,0,1,1960,320) translate(73.86229127912127 59.03786872176455)"/><path d="M200 443.6a6 6 0 0 1 6-6h188a6 6 0 0 1 6 6v68a6 6 0 0 1-6 6H206a6 6 0 0 1-6-6z" stroke="#4a5c5c" stroke-width="3" fill="#ffd9d9"/><use xlink:href="#q" transform="matrix(1,0,0,1,212,449.6) translate(12.094135802469154 21.518055555555552)"/><use xlink:href="#r" transform="matrix(1,0,0,1,212,449.6) translate(65.64907407407408 21.518055555555552)"/><use xlink:href="#s" transform="matrix(1,0,0,1,212,449.6) translate(49.47037037037038 48.451388888888886)"/><path d="M200 543.6a6 6 0 0 1 6-6h188a6 6 0 0 1 6 6v92.8a6 6 0 0 1-6 6H206a6 6 0 0 1-6-6z" stroke="#4a5c5c" stroke-width="3" fill="#ffd9d9"/><use xlink:href="#t" transform="matrix(1,0,0,1,212,549.6) translate(49.40802469135804 20.486805555555552)"/><use xlink:href="#u" transform="matrix(1,0,0,1,212,549.6) translate(38.18580246913581 47.420138888888886)"/><use xlink:href="#v" transform="matrix(1,0,0,1,212,549.6) translate(24.500925925925948 74.35347222222221)"/><use xlink:href="#w" transform="matrix(1,0,0,1,212,549.6) translate(63.09290123456791 74.35347222222221)"/><path d="M560 443.6a6 6 0 0 1 6-6h188a6 6 0 0 1 6 6v68a6 6 0 0 1-6 6H566a6 6 0 0 1-6-6z" stroke="#4a5c5c" stroke-width="3" fill="#ffd9d9"/><use xlink:href="#q" transform="matrix(1,0,0,1,572,449.60000000000014) translate(17.05061728395063 32.20555555555555)"/><use xlink:href="#x" transform="matrix(1,0,0,1,572,449.60000000000014) translate(70.60555555555555 32.20555555555555)"/><path d="M560 543.6a6 6 0 0 1 6-6h188a6 6 0 0 1 6 6v92.8a6 6 0 0 1-6 6H566a6 6 0 0 1-6-6z" stroke="#4a5c5c" stroke-width="3" fill="#ffd9d9"/><use xlink:href="#y" transform="matrix(1,0,0,1,572,549.6000000000001) translate(18.920987654320996 30.611805555555552)"/><use xlink:href="#z" transform="matrix(1,0,0,1,572,549.6000000000001) translate(7.76111111111112 57.545138888888886)"/><path d="M443 500h54.88" stroke="#969a9d" stroke-width="3" stroke-linejoin="round" fill="none"/><path d="M443.04 501.5h-1.54v-3h1.54z" stroke="#969a9d" stroke-width=".05" fill="#969a9d"/><path d="M513.65 500l-14.27 4.63v-9.26z" stroke="#969a9d" stroke-width="3" fill="#969a9d"/><path d="M920 358.8a6 6 0 0 1 6-6h188a6 6 0 0 1 6 6v92.8a6 6 0 0 1-6 6H926a6 6 0 0 1-6-6z" stroke="#4a5c5c" stroke-width="3" fill="#ffd9d9"/><use xlink:href="#A" transform="matrix(1,0,0,1,932,364.8000000000003) translate(49.78209876543211 20.486805555555552)"/><use xlink:href="#B" transform="matrix(1,0,0,1,932,364.8000000000003) translate(21.414814814814832 47.420138888888886)"/><use xlink:href="#C" transform="matrix(1,0,0,1,932,364.8000000000003) translate(40.118518518518535 74.35347222222221)"/><path d="M920 493.6a6 6 0 0 1 6-6h188a6 6 0 0 1 6 6v92.8a6 6 0 0 1-6 6H926a6 6 0 0 1-6-6z" stroke="#4a5c5c" stroke-width="3" fill="#ffd9d9"/><use xlink:href="#D" transform="matrix(1,0,0,1,932,499.60000000000025) translate(64.33981481481482 30.611805555555552)"/><use xlink:href="#E" transform="matrix(1,0,0,1,932,499.60000000000025) translate(13.122839506172852 57.545138888888886)"/><path d="M803 500h54.88" stroke="#969a9d" stroke-width="3" stroke-linejoin="round" fill="none"/><path d="M803.04 501.5h-1.54v-3h1.54z" stroke="#969a9d" stroke-width=".05" fill="#969a9d"/><path d="M873.65 500l-14.27 4.63v-9.26z" stroke="#969a9d" stroke-width="3" fill="#969a9d"/><path d="M920 628.4a6 6 0 0 1 6-6h188a6 6 0 0 1 6 6v92.8a6 6 0 0 1-6 6H926a6 6 0 0 1-6-6z" stroke="#4a5c5c" stroke-width="3" fill="#ffd9d9"/><g><use xlink:href="#F" transform="matrix(1,0,0,1,932,634.4) translate(11.56419753086422 30.611805555555552)"/><use xlink:href="#G" transform="matrix(1,0,0,1,932,634.4) translate(43.82808641975309 57.545138888888886)"/></g><path d="M1280 443.6a6 6 0 0 1 6-6h188a6 6 0 0 1 6 6v68a6 6 0 0 1-6 6h-188a6 6 0 0 1-6-6z" stroke="#4a5c5c" stroke-width="3" fill="#ffd9d9"/><g><use xlink:href="#H" transform="matrix(1,0,0,1,1292,449.60000000000014) translate(40.74197530864198 21.518055555555552)"/><use xlink:href="#I" transform="matrix(1,0,0,1,1292,449.60000000000014) translate(16.395987654321004 48.451388888888886)"/></g><path d="M1280 556a6 6 0 0 1 6-6h188a6 6 0 0 1 6 6v68a6 6 0 0 1-6 6h-188a6 6 0 0 1-6-6z" stroke="#4a5c5c" stroke-width="3" fill="#ffd9d9"/><g><use xlink:href="#J" transform="matrix(1,0,0,1,1292,562) translate(57.51296296296297 21.518055555555552)"/><use xlink:href="#K" transform="matrix(1,0,0,1,1292,562) translate(25.124382716049396 48.451388888888886)"/></g><path d="M1163 500h54.88" stroke="#969a9d" stroke-width="3" stroke-linejoin="round" fill="none"/><path d="M1163.04 501.5h-1.54v-3h1.54z" stroke="#969a9d" stroke-width=".05" fill="#969a9d"/><path d="M1233.65 500l-14.27 4.63v-9.26z" stroke="#969a9d" stroke-width="3" fill="#969a9d"/><path d="M1640 431.2a6 6 0 0 1 6-6h188a6 6 0 0 1 6 6V524a6 6 0 0 1-6 6h-188a6 6 0 0 1-6-6z" stroke="#4a5c5c" stroke-width="3" fill="#ffd9d9"/><g><use xlink:href="#L" transform="matrix(1,0,0,1,1652,437.20000000000016) translate(23.877469135802485 20.486805555555552)"/><use xlink:href="#M" transform="matrix(1,0,0,1,1652,437.20000000000016) translate(51.933024691358035 47.420138888888886)"/><use xlink:href="#N" transform="matrix(1,0,0,1,1652,437.20000000000016) translate(35.691975308641986 74.35347222222221)"/></g><path d="M1640 556a6 6 0 0 1 6-6h188a6 6 0 0 1 6 6v68a6 6 0 0 1-6 6h-188a6 6 0 0 1-6-6z" stroke="#4a5c5c" stroke-width="3" fill="#ffd9d9"/><g><use xlink:href="#J" transform="matrix(1,0,0,1,1652,562) translate(57.51296296296297 21.518055555555552)"/><use xlink:href="#O" transform="matrix(1,0,0,1,1652,562) translate(25.779012345679035 48.451388888888886)"/></g><path d="M1523 500h54.88" stroke="#969a9d" stroke-width="3" stroke-linejoin="round" fill="none"/><path d="M1523.04 501.5h-1.54v-3h1.54z" stroke="#969a9d" stroke-width=".05" fill="#969a9d"/><path d="M1593.65 500l-14.27 4.63v-9.26z" stroke="#969a9d" stroke-width="3" fill="#969a9d"/><path d="M2000 443.6a6 6 0 0 1 6-6h188a6 6 0 0 1 6 6v68a6 6 0 0 1-6 6h-188a6 6 0 0 1-6-6z" stroke="#4a5c5c" stroke-width="3" fill="#ffd9d9"/><g><use xlink:href="#P" transform="matrix(1,0,0,1,2012,449.60000000000014) translate(38.84043209876545 21.518055555555552)"/><use xlink:href="#Q" transform="matrix(1,0,0,1,2012,449.60000000000014) translate(46.29074074074075 48.451388888888886)"/></g><path d="M2000 556a6 6 0 0 1 6-6h188a6 6 0 0 1 6 6v68a6 6 0 0 1-6 6h-188a6 6 0 0 1-6-6z" stroke="#4a5c5c" stroke-width="3" fill="#ffd9d9"/><g><use xlink:href="#J" transform="matrix(1,0,0,1,2012,562) translate(57.51296296296297 21.518055555555552)"/><use xlink:href="#R" transform="matrix(1,0,0,1,2012,562) translate(31.327777777777783 48.451388888888886)"/></g><path d="M1883 500h54.88" stroke="#969a9d" stroke-width="3" stroke-linejoin="round" fill="none"/><path d="M1883.04 501.5h-1.54v-3h1.54z" stroke="#969a9d" stroke-width=".05" fill="#969a9d"/><path d="M1953.65 500l-14.27 4.63v-9.26z" stroke="#969a9d" stroke-width="3" fill="#969a9d"/><defs><path fill="#fff" d="M24-248c120-7 223 5 221 122C244-46 201 0 124 0H24v-248zM76-40c74 7 117-18 117-86 0-67-45-88-117-82v168" id="S"/><path fill="#fff" d="M133-34C117-15 103 5 69 4 32 3 11-16 11-54c-1-60 55-63 116-61 1-26-3-47-28-47-18 1-26 9-28 27l-52-2c7-38 36-58 82-57s74 22 75 68l1 82c-1 14 12 18 25 15v27c-30 8-71 5-69-32zm-48 3c29 0 43-24 42-57-32 0-66-3-65 30 0 17 8 27 23 27" id="T"/><path fill="#fff" d="M115-3C79 11 28 4 28-45v-112H4v-33h27l15-45h31v45h36v33H77v99c-1 23 16 31 38 25v30" id="U"/><g id="a"><use transform="matrix(0.06436759972834913,0,0,0.06436759972834913,0,0)" xlink:href="#S"/><use transform="matrix(0.06436759972834913,0,0,0.06436759972834913,16.671208329642425,0)" xlink:href="#T"/><use transform="matrix(0.06436759972834913,0,0,0.06436759972834913,29.544728275312252,0)" xlink:href="#U"/><use transform="matrix(0.06436759972834913,0,0,0.06436759972834913,37.2044726429858,0)" xlink:href="#T"/></g><path fill="#fff" d="M199 0l-22-63H83L61 0H9l90-248h61L250 0h-51zm-33-102l-36-108c-10 38-24 72-36 108h72" id="V"/><path fill="#fff" d="M190-63c-7 42-38 67-86 67-59 0-84-38-90-98-12-110 154-137 174-36l-49 2c-2-19-15-32-35-32-30 0-35 28-38 64-6 74 65 87 74 30" id="W"/><path fill="#fff" d="M84 4C32 4 15-41 15-95c0-55 18-99 73-99 29 0 47 12 58 34l2-30h48l-1 265h-49V-32C136-9 114 4 84 4zm21-34c32 0 41-29 41-66 0-36-9-64-40-64-33 0-39 30-40 65 0 43 13 65 39 65" id="X"/><path fill="#fff" d="M85 4C-2 5 27-109 22-190h50c7 57-23 150 33 157 60-5 35-97 40-157h50l1 190h-47c-2-12 1-28-3-38-12 25-28 42-61 42" id="Y"/><path fill="#fff" d="M25-224v-37h50v37H25zM25 0v-190h50V0H25" id="Z"/><path fill="#fff" d="M137-138c1-29-70-34-71-4 15 46 118 7 119 86 1 83-164 76-172 9l43-7c4 19 20 25 44 25 33 8 57-30 24-41C81-84 22-81 20-136c-2-80 154-74 161-7" id="aa"/><path fill="#fff" d="M110-194c64 0 96 36 96 99 0 64-35 99-97 99-61 0-95-36-95-99 0-62 34-99 96-99zm-1 164c35 0 45-28 45-65 0-40-10-65-43-65-34 0-45 26-45 65 0 36 10 65 43 65" id="ab"/><path fill="#fff" d="M135-194c87-1 58 113 63 194h-50c-7-57 23-157-34-157-59 0-34 97-39 157H25l-1-190h47c2 12-1 28 3 38 12-26 28-41 61-42" id="ac"/><g id="b"><use transform="matrix(0.06436759972834913,0,0,0.06436759972834913,0,0)" xlink:href="#V"/><use transform="matrix(0.06436759972834913,0,0,0.06436759972834913,16.671208329642425,0)" xlink:href="#W"/><use transform="matrix(0.06436759972834913,0,0,0.06436759972834913,29.544728275312252,0)" xlink:href="#X"/><use transform="matrix(0.06436759972834913,0,0,0.06436759972834913,43.64123261582071,0)" xlink:href="#Y"/><use transform="matrix(0.06436759972834913,0,0,0.06436759972834913,57.73773695632917,0)" xlink:href="#Z"/><use transform="matrix(0.06436759972834913,0,0,0.06436759972834913,64.17449692916408,0)" xlink:href="#aa"/><use transform="matrix(0.06436759972834913,0,0,0.06436759972834913,77.0480168748339,0)" xlink:href="#Z"/><use transform="matrix(0.06436759972834913,0,0,0.06436759972834913,83.48477684766881,0)" xlink:href="#U"/><use transform="matrix(0.06436759972834913,0,0,0.06436759972834913,91.14452121534237,0)" xlink:href="#Z"/><use transform="matrix(0.06436759972834913,0,0,0.06436759972834913,97.58128118817729,0)" xlink:href="#ab"/><use transform="matrix(0.06436759972834913,0,0,0.06436759972834913,111.67778552868573,0)" xlink:href="#ac"/></g><path fill="#fff" d="M88-194c31-1 46 15 58 34l-1-101h50l1 261h-48c-2-10 0-23-3-31C134-8 116 4 84 4 32 4 16-41 15-95c0-56 19-97 73-99zm17 164c33 0 40-30 41-66 1-37-9-64-41-64s-38 30-39 65c0 43 13 65 39 65" id="ad"/><g id="c"><use transform="matrix(0.06436759972834913,0,0,0.06436759972834913,0,0)" xlink:href="#T"/><use transform="matrix(0.06436759972834913,0,0,0.06436759972834913,12.873519945669825,0)" xlink:href="#ac"/><use transform="matrix(0.06436759972834913,0,0,0.06436759972834913,26.970024286178287,0)" xlink:href="#ad"/></g><path fill="#fff" d="M24-248c93 1 206-16 204 79-1 75-69 88-152 82V0H24v-248zm52 121c47 0 100 7 100-41 0-47-54-39-100-39v80" id="ae"/><path fill="#fff" d="M135-150c-39-12-60 13-60 57V0H25l-1-190h47c2 13-1 29 3 40 6-28 27-53 61-41v41" id="af"/><path fill="#fff" d="M185-48c-13 30-37 53-82 52C43 2 14-33 14-96s30-98 90-98c62 0 83 45 84 108H66c0 31 8 55 39 56 18 0 30-7 34-22zm-45-69c5-46-57-63-70-21-2 6-4 13-4 21h74" id="ag"/><path fill="#fff" d="M135-194c53 0 70 44 70 98 0 56-19 98-73 100-31 1-45-17-59-34 3 33 2 69 2 105H25l-1-265h48c2 10 0 23 3 31 11-24 29-35 60-35zM114-30c33 0 39-31 40-66 0-38-9-64-40-64-56 0-55 130 0 130" id="ah"/><g id="d"><use transform="matrix(0.06436759972834913,0,0,0.06436759972834913,0,0)" xlink:href="#ae"/><use transform="matrix(0.06436759972834913,0,0,0.06436759972834913,15.44822393480379,0)" xlink:href="#af"/><use transform="matrix(0.06436759972834913,0,0,0.06436759972834913,24.45968789677267,0)" xlink:href="#ag"/><use transform="matrix(0.06436759972834913,0,0,0.06436759972834913,37.3332078424425,0)" xlink:href="#ah"/><use transform="matrix(0.06436759972834913,0,0,0.06436759972834913,51.42971218295096,0)" xlink:href="#T"/><use transform="matrix(0.06436759972834913,0,0,0.06436759972834913,64.30323212862078,0)" xlink:href="#af"/><use transform="matrix(0.06436759972834913,0,0,0.06436759972834913,73.31469609058965,0)" xlink:href="#T"/><use transform="matrix(0.06436759972834913,0,0,0.06436759972834913,86.18821603625949,0)" xlink:href="#U"/><use transform="matrix(0.06436759972834913,0,0,0.06436759972834913,93.84796040393303,0)" xlink:href="#Z"/><use transform="matrix(0.06436759972834913,0,0,0.06436759972834913,100.28472037676794,0)" xlink:href="#ab"/><use transform="matrix(0.06436759972834913,0,0,0.06436759972834913,114.3812247172764,0)" xlink:href="#ac"/></g><path fill="#fff" d="M195-6C206 82 75 100 31 46c-4-6-6-13-8-21l49-6c3 16 16 24 34 25 40 0 42-37 40-79-11 22-30 35-61 35-53 0-70-43-70-97 0-56 18-96 73-97 30 0 46 14 59 34l2-30h47zm-90-29c32 0 41-27 41-63 0-35-9-62-40-62-32 0-39 29-40 63 0 36 9 62 39 62" id="ai"/><g id="e"><use transform="matrix(0.06436759972834913,0,0,0.06436759972834913,0,0)" xlink:href="#ae"/><use transform="matrix(0.06436759972834913,0,0,0.06436759972834913,15.44822393480379,0)" xlink:href="#af"/><use transform="matrix(0.06436759972834913,0,0,0.06436759972834913,24.45968789677267,0)" xlink:href="#ag"/><use transform="matrix(0.06436759972834913,0,0,0.06436759972834913,37.3332078424425,0)" xlink:href="#ah"/><use transform="matrix(0.06436759972834913,0,0,0.06436759972834913,51.42971218295096,0)" xlink:href="#af"/><use transform="matrix(0.06436759972834913,0,0,0.06436759972834913,60.44117614491984,0)" xlink:href="#ab"/><use transform="matrix(0.06436759972834913,0,0,0.06436759972834913,74.5376804854283,0)" xlink:href="#W"/><use transform="matrix(0.06436759972834913,0,0,0.06436759972834913,87.41120043109812,0)" xlink:href="#ag"/><use transform="matrix(0.06436759972834913,0,0,0.06436759972834913,100.28472037676795,0)" xlink:href="#aa"/><use transform="matrix(0.06436759972834913,0,0,0.06436759972834913,113.15824032243778,0)" xlink:href="#aa"/><use transform="matrix(0.06436759972834913,0,0,0.06436759972834913,126.0317602681076,0)" xlink:href="#Z"/><use transform="matrix(0.06436759972834913,0,0,0.06436759972834913,132.46852024094252,0)" xlink:href="#ac"/><use transform="matrix(0.06436759972834913,0,0,0.06436759972834913,146.56502458145098,0)" xlink:href="#ai"/></g><path fill="#fff" d="M230 0l2-204L168 0h-37L68-204 70 0H24v-248h70l56 185 57-185h69V0h-46" id="aj"/><path fill="#fff" d="M25 0v-261h50V0H25" id="ak"/><g id="f"><use transform="matrix(0.06436759972834913,0,0,0.06436759972834913,0,0)" xlink:href="#aj"/><use transform="matrix(0.06436759972834913,0,0,0.06436759972834913,19.24591231877639,0)" xlink:href="#ab"/><use transform="matrix(0.06436759972834913,0,0,0.06436759972834913,33.34241665928485,0)" xlink:href="#ad"/><use transform="matrix(0.06436759972834913,0,0,0.06436759972834913,47.43892099979331,0)" xlink:href="#ag"/><use transform="matrix(0.06436759972834913,0,0,0.06436759972834913,60.31244094546314,0)" xlink:href="#ak"/><use transform="matrix(0.06436759972834913,0,0,0.06436759972834913,66.74920091829804,0)" xlink:href="#Z"/><use transform="matrix(0.06436759972834913,0,0,0.06436759972834913,73.18596089113295,0)" xlink:href="#ac"/><use transform="matrix(0.06436759972834913,0,0,0.06436759972834913,87.28246523164141,0)" xlink:href="#ai"/></g><path fill="#fff" d="M24 0v-248h195v40H76v63h132v40H76v65h150V0H24" id="al"/><path fill="#fff" d="M128 0H69L1-190h53L99-40l48-150h52" id="am"/><path fill="#fff" d="M220-157c-53 9-28 100-34 157h-49v-107c1-27-5-49-29-50C55-147 81-57 75 0H25l-1-190h47c2 12-1 28 3 38 10-53 101-56 108 0 13-22 24-43 59-42 82 1 51 116 57 194h-49v-107c-1-25-5-48-29-50" id="an"/><g id="g"><use transform="matrix(0.06436759972834913,0,0,0.06436759972834913,0,0)" xlink:href="#al"/><use transform="matrix(0.06436759972834913,0,0,0.06436759972834913,15.44822393480379,0)" xlink:href="#ac"/><use transform="matrix(0.06436759972834913,0,0,0.06436759972834913,29.544728275312252,0)" xlink:href="#am"/><use transform="matrix(0.06436759972834913,0,0,0.06436759972834913,42.41824822098208,0)" xlink:href="#Z"/><use transform="matrix(0.06436759972834913,0,0,0.06436759972834913,48.85500819381699,0)" xlink:href="#af"/><use transform="matrix(0.06436759972834913,0,0,0.06436759972834913,57.86647215578587,0)" xlink:href="#ab"/><use transform="matrix(0.06436759972834913,0,0,0.06436759972834913,71.96297649629433,0)" xlink:href="#ac"/><use transform="matrix(0.06436759972834913,0,0,0.06436759972834913,86.05948083680279,0)" xlink:href="#an"/><use transform="matrix(0.06436759972834913,0,0,0.06436759972834913,106.65711274987451,0)" xlink:href="#ag"/><use transform="matrix(0.06436759972834913,0,0,0.06436759972834913,119.53063269554434,0)" xlink:href="#ac"/><use transform="matrix(0.06436759972834913,0,0,0.06436759972834913,133.6271370360528,0)" xlink:href="#U"/></g><path fill="#fff" d="M169-182c-1-43-94-46-97-3 18 66 151 10 154 114 3 95-165 93-204 36-6-8-10-19-12-30l50-8c3 46 112 56 116 5-17-69-150-10-154-114-4-87 153-88 188-35 5 8 8 18 10 28" id="ao"/><g id="h"><use transform="matrix(0.06436759972834913,0,0,0.06436759972834913,0,0)" xlink:href="#ao"/><use transform="matrix(0.06436759972834913,0,0,0.06436759972834913,15.44822393480379,0)" xlink:href="#ag"/><use transform="matrix(0.06436759972834913,0,0,0.06436759972834913,28.321743880473615,0)" xlink:href="#U"/><use transform="matrix(0.06436759972834913,0,0,0.06436759972834913,35.98148824814716,0)" xlink:href="#Y"/><use transform="matrix(0.06436759972834913,0,0,0.06436759972834913,50.07799258865562,0)" xlink:href="#ah"/></g><g id="i"><use transform="matrix(0.06436759972834913,0,0,0.06436759972834913,0,0)" xlink:href="#aj"/><use transform="matrix(0.06436759972834913,0,0,0.06436759972834913,19.24591231877639,0)" xlink:href="#ab"/><use transform="matrix(0.06436759972834913,0,0,0.06436759972834913,33.34241665928485,0)" xlink:href="#ad"/><use transform="matrix(0.06436759972834913,0,0,0.06436759972834913,47.43892099979331,0)" xlink:href="#ag"/><use transform="matrix(0.06436759972834913,0,0,0.06436759972834913,60.31244094546314,0)" xlink:href="#ak"/></g><g id="j"><use transform="matrix(0.06436759972834913,0,0,0.06436759972834913,0,0)" xlink:href="#ao"/><use transform="matrix(0.06436759972834913,0,0,0.06436759972834913,15.44822393480379,0)" xlink:href="#ag"/><use transform="matrix(0.06436759972834913,0,0,0.06436759972834913,28.321743880473615,0)" xlink:href="#ak"/><use transform="matrix(0.06436759972834913,0,0,0.06436759972834913,34.758503853308525,0)" xlink:href="#ag"/><use transform="matrix(0.06436759972834913,0,0,0.06436759972834913,47.63202379897835,0)" xlink:href="#W"/><use transform="matrix(0.06436759972834913,0,0,0.06436759972834913,60.50554374464818,0)" xlink:href="#U"/><use transform="matrix(0.06436759972834913,0,0,0.06436759972834913,68.16528811232172,0)" xlink:href="#Z"/><use transform="matrix(0.06436759972834913,0,0,0.06436759972834913,74.60204808515662,0)" xlink:href="#ab"/><use transform="matrix(0.06436759972834913,0,0,0.06436759972834913,88.69855242566508,0)" xlink:href="#ac"/></g><path fill="#fff" d="M136-208V0H84v-208H4v-40h212v40h-80" id="ap"/><g id="k"><use transform="matrix(0.06436759972834913,0,0,0.06436759972834913,0,0)" xlink:href="#ap"/><use transform="matrix(0.06436759972834913,0,0,0.06436759972834913,12.809152345941477,0)" xlink:href="#af"/><use transform="matrix(0.06436759972834913,0,0,0.06436759972834913,21.820616307910356,0)" xlink:href="#T"/><use transform="matrix(0.06436759972834913,0,0,0.06436759972834913,34.69413625358018,0)" xlink:href="#Z"/><use transform="matrix(0.06436759972834913,0,0,0.06436759972834913,41.130896226415096,0)" xlink:href="#ac"/><use transform="matrix(0.06436759972834913,0,0,0.06436759972834913,55.227400566923556,0)" xlink:href="#Z"/><use transform="matrix(0.06436759972834913,0,0,0.06436759972834913,61.66416053975847,0)" xlink:href="#ac"/><use transform="matrix(0.06436759972834913,0,0,0.06436759972834913,75.76066488026693,0)" xlink:href="#ai"/></g><g id="l"><use transform="matrix(0.06436759972834913,0,0,0.06436759972834913,0,0)" xlink:href="#al"/><use transform="matrix(0.06436759972834913,0,0,0.06436759972834913,15.44822393480379,0)" xlink:href="#am"/><use transform="matrix(0.06436759972834913,0,0,0.06436759972834913,28.321743880473615,0)" xlink:href="#T"/><use transform="matrix(0.06436759972834913,0,0,0.06436759972834913,41.195263826143446,0)" xlink:href="#ak"/><use transform="matrix(0.06436759972834913,0,0,0.06436759972834913,47.63202379897835,0)" xlink:href="#Y"/><use transform="matrix(0.06436759972834913,0,0,0.06436759972834913,61.72852813948681,0)" xlink:href="#T"/><use transform="matrix(0.06436759972834913,0,0,0.06436759972834913,74.60204808515664,0)" xlink:href="#U"/><use transform="matrix(0.06436759972834913,0,0,0.06436759972834913,82.26179245283018,0)" xlink:href="#Z"/><use transform="matrix(0.06436759972834913,0,0,0.06436759972834913,88.69855242566508,0)" xlink:href="#ab"/><use transform="matrix(0.06436759972834913,0,0,0.06436759972834913,102.79505676617354,0)" xlink:href="#ac"/></g><path fill="#fff" d="M76-208v77h127v40H76V0H24v-248h183v40H76" id="aq"/><path fill="#fff" d="M12 0v-35l95-120H19v-35h142v35L67-36h103V0H12" id="ar"/><g id="m"><use transform="matrix(0.06436759972834913,0,0,0.06436759972834913,0,0)" xlink:href="#aq"/><use transform="matrix(0.06436759972834913,0,0,0.06436759972834913,14.09650434050846,0)" xlink:href="#Z"/><use transform="matrix(0.06436759972834913,0,0,0.06436759972834913,20.533264313343373,0)" xlink:href="#ac"/><use transform="matrix(0.06436759972834913,0,0,0.06436759972834913,34.62976865385183,0)" xlink:href="#T"/><use transform="matrix(0.06436759972834913,0,0,0.06436759972834913,47.50328859952166,0)" xlink:href="#ak"/><use transform="matrix(0.06436759972834913,0,0,0.06436759972834913,53.940048572356574,0)" xlink:href="#Z"/><use transform="matrix(0.06436759972834913,0,0,0.06436759972834913,60.37680854519149,0)" xlink:href="#ar"/><use transform="matrix(0.06436759972834913,0,0,0.06436759972834913,71.96297649629433,0)" xlink:href="#T"/><use transform="matrix(0.06436759972834913,0,0,0.06436759972834913,84.83649644196416,0)" xlink:href="#U"/><use transform="matrix(0.06436759972834913,0,0,0.06436759972834913,92.4962408096377,0)" xlink:href="#Z"/><use transform="matrix(0.06436759972834913,0,0,0.06436759972834913,98.9330007824726,0)" xlink:href="#ab"/><use transform="matrix(0.06436759972834913,0,0,0.06436759972834913,113.02950512298106,0)" xlink:href="#ac"/></g><g id="n"><use transform="matrix(0.06436759972834913,0,0,0.06436759972834913,0,0)" xlink:href="#ae"/><use transform="matrix(0.06436759972834913,0,0,0.06436759972834913,15.44822393480379,0)" xlink:href="#af"/><use transform="matrix(0.06436759972834913,0,0,0.06436759972834913,24.45968789677267,0)" xlink:href="#ag"/><use transform="matrix(0.06436759972834913,0,0,0.06436759972834913,37.3332078424425,0)" xlink:href="#ad"/><use transform="matrix(0.06436759972834913,0,0,0.06436759972834913,51.42971218295096,0)" xlink:href="#Z"/><use transform="matrix(0.06436759972834913,0,0,0.06436759972834913,57.86647215578587,0)" xlink:href="#W"/><use transform="matrix(0.06436759972834913,0,0,0.06436759972834913,70.7399921014557,0)" xlink:href="#U"/><use transform="matrix(0.06436759972834913,0,0,0.06436759972834913,78.39973646912924,0)" xlink:href="#Z"/><use transform="matrix(0.06436759972834913,0,0,0.06436759972834913,84.83649644196414,0)" xlink:href="#ab"/><use transform="matrix(0.06436759972834913,0,0,0.06436759972834913,98.9330007824726,0)" xlink:href="#ac"/></g><g id="o"><use transform="matrix(0.06436759972834913,0,0,0.06436759972834913,0,0)" xlink:href="#T"/><use transform="matrix(0.06436759972834913,0,0,0.06436759972834913,12.873519945669825,0)" xlink:href="#ac"/><use transform="matrix(0.06436759972834913,0,0,0.06436759972834913,26.970024286178287,0)" xlink:href="#ad"/></g><path fill="#fff" d="M123 10C108 53 80 86 19 72V37c35 8 53-11 59-39L3-190h52l48 148c12-52 28-100 44-148h51" id="as"/><g id="p"><use transform="matrix(0.06436759972834913,0,0,0.06436759972834913,0,0)" xlink:href="#S"/><use transform="matrix(0.06436759972834913,0,0,0.06436759972834913,16.671208329642425,0)" xlink:href="#ag"/><use transform="matrix(0.06436759972834913,0,0,0.06436759972834913,29.544728275312252,0)" xlink:href="#ah"/><use transform="matrix(0.06436759972834913,0,0,0.06436759972834913,43.64123261582071,0)" xlink:href="#ak"/><use transform="matrix(0.06436759972834913,0,0,0.06436759972834913,50.07799258865562,0)" xlink:href="#ab"/><use transform="matrix(0.06436759972834913,0,0,0.06436759972834913,64.17449692916409,0)" xlink:href="#as"/><use transform="matrix(0.06436759972834913,0,0,0.06436759972834913,77.04801687483392,0)" xlink:href="#an"/><use transform="matrix(0.06436759972834913,0,0,0.06436759972834913,97.64564878790564,0)" xlink:href="#ag"/><use transform="matrix(0.06436759972834913,0,0,0.06436759972834913,110.51916873357547,0)" xlink:href="#ac"/><use transform="matrix(0.06436759972834913,0,0,0.06436759972834913,124.61567307408393,0)" xlink:href="#U"/></g><path d="M30-248c118-7 216 8 213 122C240-48 200 0 122 0H30v-248zM63-27c89 8 146-16 146-99s-60-101-146-95v194" id="at"/><path d="M141-36C126-15 110 5 73 4 37 3 15-17 15-53c-1-64 63-63 125-63 3-35-9-54-41-54-24 1-41 7-42 31l-33-3c5-37 33-52 76-52 45 0 72 20 72 64v82c-1 20 7 32 28 27v20c-31 9-61-2-59-35zM48-53c0 20 12 33 32 33 41-3 63-29 60-74-43 2-92-5-92 41" id="au"/><path d="M59-47c-2 24 18 29 38 22v24C64 9 27 4 27-40v-127H5v-23h24l9-43h21v43h35v23H59v120" id="av"/><g id="q"><use transform="matrix(0.06234567901234567,0,0,0.06234567901234567,0,0)" xlink:href="#at"/><use transform="matrix(0.06234567901234567,0,0,0.06234567901234567,16.147530864197527,0)" xlink:href="#au"/><use transform="matrix(0.06234567901234567,0,0,0.06234567901234567,28.61666666666666,0)" xlink:href="#av"/><use transform="matrix(0.06234567901234567,0,0,0.06234567901234567,34.85123456790123,0)" xlink:href="#au"/></g><path d="M212-179c-10-28-35-45-73-45-59 0-87 40-87 99 0 60 29 101 89 101 43 0 62-24 78-52l27 14C228-24 195 4 139 4 59 4 22-46 18-125c-6-104 99-153 187-111 19 9 31 26 39 46" id="aw"/><path d="M100-194c62-1 85 37 85 99 1 63-27 99-86 99S16-35 15-95c0-66 28-99 85-99zM99-20c44 1 53-31 53-75 0-43-8-75-51-75s-53 32-53 75 10 74 51 75" id="ax"/><path d="M24 0v-261h32V0H24" id="ay"/><path d="M100-194c63 0 86 42 84 106H49c0 40 14 67 53 68 26 1 43-12 49-29l28 8c-11 28-37 45-77 45C44 4 14-33 15-96c1-61 26-98 85-98zm52 81c6-60-76-77-97-28-3 7-6 17-6 28h103" id="az"/><path d="M96-169c-40 0-48 33-48 73s9 75 48 75c24 0 41-14 43-38l32 2c-6 37-31 61-74 61-59 0-76-41-82-99-10-93 101-131 147-64 4 7 5 14 7 22l-32 3c-4-21-16-35-41-35" id="aA"/><path d="M24-231v-30h32v30H24zM24 0v-190h32V0H24" id="aB"/><path d="M117-194c89-4 53 116 60 194h-32v-121c0-31-8-49-39-48C34-167 62-67 57 0H25l-1-190h30c1 10-1 24 2 32 11-22 29-35 61-36" id="aC"/><g id="r"><use transform="matrix(0.06234567901234567,0,0,0.06234567901234567,0,0)" xlink:href="#aw"/><use transform="matrix(0.06234567901234567,0,0,0.06234567901234567,16.147530864197527,0)" xlink:href="#ax"/><use transform="matrix(0.06234567901234567,0,0,0.06234567901234567,28.61666666666666,0)" xlink:href="#ay"/><use transform="matrix(0.06234567901234567,0,0,0.06234567901234567,33.541975308641966,0)" xlink:href="#ay"/><use transform="matrix(0.06234567901234567,0,0,0.06234567901234567,38.46728395061727,0)" xlink:href="#az"/><use transform="matrix(0.06234567901234567,0,0,0.06234567901234567,50.936419753086405,0)" xlink:href="#aA"/><use transform="matrix(0.06234567901234567,0,0,0.06234567901234567,62.158641975308626,0)" xlink:href="#av"/><use transform="matrix(0.06234567901234567,0,0,0.06234567901234567,68.3932098765432,0)" xlink:href="#aB"/><use transform="matrix(0.06234567901234567,0,0,0.06234567901234567,73.3185185185185,0)" xlink:href="#ax"/><use transform="matrix(0.06234567901234567,0,0,0.06234567901234567,85.78765432098763,0)" xlink:href="#aC"/></g><path d="M87 75C49 33 22-17 22-94c0-76 28-126 65-167h31c-38 41-64 92-64 168S80 34 118 75H87" id="aD"/><path d="M232-93c-1 65-40 97-104 97C67 4 28-28 28-90v-158h33c8 89-33 224 67 224 102 0 64-133 71-224h33v155" id="aE"/><path d="M30-248c87 1 191-15 191 75 0 78-77 80-158 76V0H30v-248zm33 125c57 0 124 11 124-50 0-59-68-47-124-48v98" id="aF"/><path d="M185-189c-5-48-123-54-124 2 14 75 158 14 163 119 3 78-121 87-175 55-17-10-28-26-33-46l33-7c5 56 141 63 141-1 0-78-155-14-162-118-5-82 145-84 179-34 5 7 8 16 11 25" id="aG"/><path d="M33-261c38 41 65 92 65 168S71 34 33 75H2C39 34 66-17 66-93S39-220 2-261h31" id="aH"/><g id="s"><use transform="matrix(0.06234567901234567,0,0,0.06234567901234567,0,0)" xlink:href="#aD"/><use transform="matrix(0.06234567901234567,0,0,0.06234567901234567,7.4191358024691345,0)" xlink:href="#aE"/><use transform="matrix(0.06234567901234567,0,0,0.06234567901234567,23.566666666666663,0)" xlink:href="#at"/><use transform="matrix(0.06234567901234567,0,0,0.06234567901234567,39.71419753086419,0)" xlink:href="#aF"/><use transform="matrix(0.06234567901234567,0,0,0.06234567901234567,54.67716049382715,0)" xlink:href="#aG"/><use transform="matrix(0.06234567901234567,0,0,0.06234567901234567,69.6401234567901,0)" xlink:href="#aH"/></g><path d="M63-220v92h138v28H63V0H30v-248h175v28H63" id="aI"/><path d="M84 4C-5 8 30-112 23-190h32v120c0 31 7 50 39 49 72-2 45-101 50-169h31l1 190h-30c-1-10 1-25-2-33-11 22-28 36-60 37" id="aJ"/><path d="M114-163C36-179 61-72 57 0H25l-1-190h30c1 12-1 29 2 39 6-27 23-49 58-41v29" id="aK"/><g id="t"><use transform="matrix(0.06234567901234567,0,0,0.06234567901234567,0,0)" xlink:href="#aI"/><use transform="matrix(0.06234567901234567,0,0,0.06234567901234567,13.653703703703702,0)" xlink:href="#az"/><use transform="matrix(0.06234567901234567,0,0,0.06234567901234567,26.122839506172834,0)" xlink:href="#au"/><use transform="matrix(0.06234567901234567,0,0,0.06234567901234567,38.59197530864196,0)" xlink:href="#av"/><use transform="matrix(0.06234567901234567,0,0,0.06234567901234567,44.82654320987653,0)" xlink:href="#aJ"/><use transform="matrix(0.06234567901234567,0,0,0.06234567901234567,57.295679012345666,0)" xlink:href="#aK"/><use transform="matrix(0.06234567901234567,0,0,0.06234567901234567,64.7148148148148,0)" xlink:href="#az"/></g><path d="M30 0v-248h187v28H63v79h144v27H63v87h162V0H30" id="aL"/><path d="M141 0L90-78 38 0H4l68-98-65-92h35l48 74 47-74h35l-64 92 68 98h-35" id="aM"/><g id="u"><use transform="matrix(0.06234567901234567,0,0,0.06234567901234567,0,0)" xlink:href="#aL"/><use transform="matrix(0.06234567901234567,0,0,0.06234567901234567,14.96296296296296,0)" xlink:href="#aM"/><use transform="matrix(0.06234567901234567,0,0,0.06234567901234567,26.18518518518518,0)" xlink:href="#av"/><use transform="matrix(0.06234567901234567,0,0,0.06234567901234567,32.419753086419746,0)" xlink:href="#aK"/><use transform="matrix(0.06234567901234567,0,0,0.06234567901234567,39.83888888888888,0)" xlink:href="#au"/><use transform="matrix(0.06234567901234567,0,0,0.06234567901234567,52.308024691358014,0)" xlink:href="#aA"/><use transform="matrix(0.06234567901234567,0,0,0.06234567901234567,63.530246913580235,0)" xlink:href="#av"/><use transform="matrix(0.06234567901234567,0,0,0.06234567901234567,69.7648148148148,0)" xlink:href="#aB"/><use transform="matrix(0.06234567901234567,0,0,0.06234567901234567,74.6901234567901,0)" xlink:href="#ax"/><use transform="matrix(0.06234567901234567,0,0,0.06234567901234567,87.15925925925924,0)" xlink:href="#aC"/></g><path d="M27 0v-27h64v-190l-56 39v-29l58-41h29v221h61V0H27" id="aN"/><path d="M64 0c3-98 48-159 88-221H18v-27h164v26C143-157 98-101 97 0H64" id="aO"/><g id="v"><use transform="matrix(0.06234567901234567,0,0,0.06234567901234567,0,0)" xlink:href="#aD"/><use transform="matrix(0.06234567901234567,0,0,0.06234567901234567,7.4191358024691345,0)" xlink:href="#aN"/><use transform="matrix(0.06234567901234567,0,0,0.06234567901234567,19.888271604938268,0)" xlink:href="#aO"/></g><path d="M101-234c-31-9-42 10-38 44h38v23H63V0H32v-167H5v-23h27c-7-52 17-82 69-68v24" id="aP"/><path d="M135-143c-3-34-86-38-87 0 15 53 115 12 119 90S17 21 10-45l28-5c4 36 97 45 98 0-10-56-113-15-118-90-4-57 82-63 122-42 12 7 21 19 24 35" id="aQ"/><g id="w"><use transform="matrix(0.06234567901234567,0,0,0.06234567901234567,0,0)" xlink:href="#aP"/><use transform="matrix(0.06234567901234567,0,0,0.06234567901234567,6.234567901234566,0)" xlink:href="#az"/><use transform="matrix(0.06234567901234567,0,0,0.06234567901234567,18.7037037037037,0)" xlink:href="#au"/><use transform="matrix(0.06234567901234567,0,0,0.06234567901234567,31.17283950617283,0)" xlink:href="#av"/><use transform="matrix(0.06234567901234567,0,0,0.06234567901234567,37.4074074074074,0)" xlink:href="#aJ"/><use transform="matrix(0.06234567901234567,0,0,0.06234567901234567,49.87654320987653,0)" xlink:href="#aK"/><use transform="matrix(0.06234567901234567,0,0,0.06234567901234567,57.295679012345666,0)" xlink:href="#az"/><use transform="matrix(0.06234567901234567,0,0,0.06234567901234567,69.7648148148148,0)" xlink:href="#aQ"/><use transform="matrix(0.06234567901234567,0,0,0.06234567901234567,80.98703703703701,0)" xlink:href="#aH"/></g><path d="M177-190C167-65 218 103 67 71c-23-6-38-20-44-43l32-5c15 47 100 32 89-28v-30C133-14 115 1 83 1 29 1 15-40 15-95c0-56 16-97 71-98 29-1 48 16 59 35 1-10 0-23 2-32h30zM94-22c36 0 50-32 50-73 0-42-14-75-50-75-39 0-46 34-46 75s6 73 46 73" id="aR"/><g id="x"><use transform="matrix(0.06234567901234567,0,0,0.06234567901234567,0,0)" xlink:href="#aw"/><use transform="matrix(0.06234567901234567,0,0,0.06234567901234567,16.147530864197527,0)" xlink:href="#ay"/><use transform="matrix(0.06234567901234567,0,0,0.06234567901234567,21.072839506172834,0)" xlink:href="#az"/><use transform="matrix(0.06234567901234567,0,0,0.06234567901234567,33.541975308641966,0)" xlink:href="#au"/><use transform="matrix(0.06234567901234567,0,0,0.06234567901234567,46.0111111111111,0)" xlink:href="#aC"/><use transform="matrix(0.06234567901234567,0,0,0.06234567901234567,58.48024691358023,0)" xlink:href="#aB"/><use transform="matrix(0.06234567901234567,0,0,0.06234567901234567,63.40555555555554,0)" xlink:href="#aC"/><use transform="matrix(0.06234567901234567,0,0,0.06234567901234567,75.87469135802468,0)" xlink:href="#aR"/></g><path d="M140-251c81 0 123 46 123 126C263-46 219 4 140 4 59 4 17-45 17-125s42-126 123-126zm0 227c63 0 89-41 89-101s-29-99-89-99c-61 0-89 39-89 99S79-25 140-24" id="aS"/><path d="M108 0H70L1-190h34L89-25l56-165h34" id="aT"/><path d="M210-169c-67 3-38 105-44 169h-31v-121c0-29-5-50-35-48C34-165 62-65 56 0H25l-1-190h30c1 10-1 24 2 32 10-44 99-50 107 0 11-21 27-35 58-36 85-2 47 119 55 194h-31v-121c0-29-5-49-35-48" id="aU"/><path d="M115-194c55 1 70 41 70 98S169 2 115 4C84 4 66-9 55-30l1 105H24l-1-265h31l2 30c10-21 28-34 59-34zm-8 174c40 0 45-34 45-75s-6-73-45-74c-42 0-51 32-51 76 0 43 10 73 51 73" id="aV"/><g id="y"><use transform="matrix(0.06234567901234567,0,0,0.06234567901234567,0,0)" xlink:href="#aS"/><use transform="matrix(0.06234567901234567,0,0,0.06234567901234567,17.456790123456788,0)" xlink:href="#aT"/><use transform="matrix(0.06234567901234567,0,0,0.06234567901234567,28.679012345679006,0)" xlink:href="#az"/><use transform="matrix(0.06234567901234567,0,0,0.06234567901234567,41.14814814814814,0)" xlink:href="#aK"/><use transform="matrix(0.06234567901234567,0,0,0.06234567901234567,48.56728395061727,0)" xlink:href="#aQ"/><use transform="matrix(0.06234567901234567,0,0,0.06234567901234567,59.789506172839495,0)" xlink:href="#au"/><use transform="matrix(0.06234567901234567,0,0,0.06234567901234567,72.25864197530862,0)" xlink:href="#aU"/><use transform="matrix(0.06234567901234567,0,0,0.06234567901234567,90.89999999999998,0)" xlink:href="#aV"/><use transform="matrix(0.06234567901234567,0,0,0.06234567901234567,103.36913580246912,0)" xlink:href="#ay"/><use transform="matrix(0.06234567901234567,0,0,0.06234567901234567,108.29444444444442,0)" xlink:href="#aB"/><use transform="matrix(0.06234567901234567,0,0,0.06234567901234567,113.21975308641973,0)" xlink:href="#aC"/><use transform="matrix(0.06234567901234567,0,0,0.06234567901234567,125.68888888888887,0)" xlink:href="#aR"/></g><path d="M240 0l2-218c-23 76-54 145-80 218h-23L58-218 59 0H30v-248h44l77 211c21-75 51-140 76-211h43V0h-30" id="aW"/><path d="M127-220V0H93v-220H8v-28h204v28h-85" id="aX"/><path d="M143 0L79-87 56-68V0H24v-261h32v163l83-92h37l-77 82L181 0h-38" id="aY"/><g id="z"><use transform="matrix(0.06234567901234567,0,0,0.06234567901234567,0,0)" xlink:href="#aD"/><use transform="matrix(0.06234567901234567,0,0,0.06234567901234567,7.4191358024691345,0)" xlink:href="#aG"/><use transform="matrix(0.06234567901234567,0,0,0.06234567901234567,22.382098765432094,0)" xlink:href="#aW"/><use transform="matrix(0.06234567901234567,0,0,0.06234567901234567,41.02345679012345,0)" xlink:href="#aS"/><use transform="matrix(0.06234567901234567,0,0,0.06234567901234567,58.48024691358023,0)" xlink:href="#aX"/><use transform="matrix(0.06234567901234567,0,0,0.06234567901234567,72.13395061728393,0)" xlink:href="#aL"/><use transform="matrix(0.06234567901234567,0,0,0.06234567901234567,87.09691358024689,0)" xlink:href="#aX"/><use transform="matrix(0.06234567901234567,0,0,0.06234567901234567,98.25679012345677,0)" xlink:href="#ax"/><use transform="matrix(0.06234567901234567,0,0,0.06234567901234567,110.7259259259259,0)" xlink:href="#aU"/><use transform="matrix(0.06234567901234567,0,0,0.06234567901234567,129.36728395061726,0)" xlink:href="#az"/><use transform="matrix(0.06234567901234567,0,0,0.06234567901234567,141.8364197530864,0)" xlink:href="#aY"/><use transform="matrix(0.06234567901234567,0,0,0.06234567901234567,153.05864197530863,0)" xlink:href="#aH"/></g><path d="M205 0l-28-72H64L36 0H1l101-248h38L239 0h-34zm-38-99l-47-123c-12 45-31 82-46 123h93" id="aZ"/><path d="M30 0v-248h33v221h125V0H30" id="ba"/><g id="A"><use transform="matrix(0.06234567901234567,0,0,0.06234567901234567,0,0)" xlink:href="#aZ"/><use transform="matrix(0.06234567901234567,0,0,0.06234567901234567,14.96296296296296,0)" xlink:href="#aJ"/><use transform="matrix(0.06234567901234567,0,0,0.06234567901234567,27.432098765432094,0)" xlink:href="#av"/><use transform="matrix(0.06234567901234567,0,0,0.06234567901234567,33.66666666666666,0)" xlink:href="#ax"/><use transform="matrix(0.06234567901234567,0,0,0.06234567901234567,46.13580246913579,0)" xlink:href="#aW"/><use transform="matrix(0.06234567901234567,0,0,0.06234567901234567,64.77716049382714,0)" xlink:href="#ba"/></g><g id="B"><use transform="matrix(0.06234567901234567,0,0,0.06234567901234567,0,0)" xlink:href="#aw"/><use transform="matrix(0.06234567901234567,0,0,0.06234567901234567,16.147530864197527,0)" xlink:href="#ax"/><use transform="matrix(0.06234567901234567,0,0,0.06234567901234567,28.61666666666666,0)" xlink:href="#aC"/><use transform="matrix(0.06234567901234567,0,0,0.06234567901234567,41.08580246913579,0)" xlink:href="#aP"/><use transform="matrix(0.06234567901234567,0,0,0.06234567901234567,47.320370370370355,0)" xlink:href="#aB"/><use transform="matrix(0.06234567901234567,0,0,0.06234567901234567,52.24567901234566,0)" xlink:href="#aR"/><use transform="matrix(0.06234567901234567,0,0,0.06234567901234567,64.71481481481479,0)" xlink:href="#aJ"/><use transform="matrix(0.06234567901234567,0,0,0.06234567901234567,77.18395061728393,0)" xlink:href="#aK"/><use transform="matrix(0.06234567901234567,0,0,0.06234567901234567,84.60308641975305,0)" xlink:href="#au"/><use transform="matrix(0.06234567901234567,0,0,0.06234567901234567,97.0722222222222,0)" xlink:href="#av"/><use transform="matrix(0.06234567901234567,0,0,0.06234567901234567,103.30679012345676,0)" xlink:href="#aB"/><use transform="matrix(0.06234567901234567,0,0,0.06234567901234567,108.23209876543207,0)" xlink:href="#ax"/><use transform="matrix(0.06234567901234567,0,0,0.06234567901234567,120.7012345679012,0)" xlink:href="#aC"/></g><path d="M179-190L93 31C79 59 56 82 12 73V49c39 6 53-20 64-50L1-190h34L92-34l54-156h33" id="bb"/><g id="C"><use transform="matrix(0.06234567901234567,0,0,0.06234567901234567,0,0)" xlink:href="#aD"/><use transform="matrix(0.06234567901234567,0,0,0.06234567901234567,7.4191358024691345,0)" xlink:href="#aF"/><use transform="matrix(0.06234567901234567,0,0,0.06234567901234567,22.382098765432094,0)" xlink:href="#bb"/><use transform="matrix(0.06234567901234567,0,0,0.06234567901234567,33.60432098765431,0)" xlink:href="#aw"/><use transform="matrix(0.06234567901234567,0,0,0.06234567901234567,49.75185185185184,0)" xlink:href="#au"/><use transform="matrix(0.06234567901234567,0,0,0.06234567901234567,62.22098765432097,0)" xlink:href="#aK"/><use transform="matrix(0.06234567901234567,0,0,0.06234567901234567,69.6401234567901,0)" xlink:href="#az"/><use transform="matrix(0.06234567901234567,0,0,0.06234567901234567,82.10925925925923,0)" xlink:href="#av"/><use transform="matrix(0.06234567901234567,0,0,0.06234567901234567,88.3438271604938,0)" xlink:href="#aH"/></g><g id="D"><use transform="matrix(0.06234567901234567,0,0,0.06234567901234567,0,0)" xlink:href="#at"/><use transform="matrix(0.06234567901234567,0,0,0.06234567901234567,16.147530864197527,0)" xlink:href="#au"/><use transform="matrix(0.06234567901234567,0,0,0.06234567901234567,28.61666666666666,0)" xlink:href="#av"/><use transform="matrix(0.06234567901234567,0,0,0.06234567901234567,34.85123456790123,0)" xlink:href="#au"/></g><g id="E"><use transform="matrix(0.06234567901234567,0,0,0.06234567901234567,0,0)" xlink:href="#aX"/><use transform="matrix(0.06234567901234567,0,0,0.06234567901234567,12.843209876543208,0)" xlink:href="#aK"/><use transform="matrix(0.06234567901234567,0,0,0.06234567901234567,20.26234567901234,0)" xlink:href="#au"/><use transform="matrix(0.06234567901234567,0,0,0.06234567901234567,32.731481481481474,0)" xlink:href="#aC"/><use transform="matrix(0.06234567901234567,0,0,0.06234567901234567,45.200617283950606,0)" xlink:href="#aQ"/><use transform="matrix(0.06234567901234567,0,0,0.06234567901234567,56.42283950617283,0)" xlink:href="#aP"/><use transform="matrix(0.06234567901234567,0,0,0.06234567901234567,62.65740740740739,0)" xlink:href="#ax"/><use transform="matrix(0.06234567901234567,0,0,0.06234567901234567,75.12654320987653,0)" xlink:href="#aK"/><use transform="matrix(0.06234567901234567,0,0,0.06234567901234567,82.54567901234566,0)" xlink:href="#aU"/><use transform="matrix(0.06234567901234567,0,0,0.06234567901234567,101.18703703703702,0)" xlink:href="#au"/><use transform="matrix(0.06234567901234567,0,0,0.06234567901234567,113.65617283950616,0)" xlink:href="#av"/><use transform="matrix(0.06234567901234567,0,0,0.06234567901234567,119.89074074074072,0)" xlink:href="#aB"/><use transform="matrix(0.06234567901234567,0,0,0.06234567901234567,124.81604938271603,0)" xlink:href="#ax"/><use transform="matrix(0.06234567901234567,0,0,0.06234567901234567,137.28518518518516,0)" xlink:href="#aC"/></g><g id="F"><use transform="matrix(0.06234567901234567,0,0,0.06234567901234567,0,0)" xlink:href="#aW"/><use transform="matrix(0.06234567901234567,0,0,0.06234567901234567,18.641358024691353,0)" xlink:href="#aJ"/><use transform="matrix(0.06234567901234567,0,0,0.06234567901234567,31.110493827160486,0)" xlink:href="#ay"/><use transform="matrix(0.06234567901234567,0,0,0.06234567901234567,36.035802469135795,0)" xlink:href="#av"/><use transform="matrix(0.06234567901234567,0,0,0.06234567901234567,42.27037037037036,0)" xlink:href="#aB"/><use transform="matrix(0.06234567901234567,0,0,0.06234567901234567,47.195679012345664,0)" xlink:href="#aA"/><use transform="matrix(0.06234567901234567,0,0,0.06234567901234567,58.417901234567886,0)" xlink:href="#ax"/><use transform="matrix(0.06234567901234567,0,0,0.06234567901234567,70.88703703703702,0)" xlink:href="#ay"/><use transform="matrix(0.06234567901234567,0,0,0.06234567901234567,75.81234567901232,0)" xlink:href="#ay"/><use transform="matrix(0.06234567901234567,0,0,0.06234567901234567,80.73765432098763,0)" xlink:href="#aB"/><use transform="matrix(0.06234567901234567,0,0,0.06234567901234567,85.66296296296294,0)" xlink:href="#aC"/><use transform="matrix(0.06234567901234567,0,0,0.06234567901234567,98.13209876543206,0)" xlink:href="#az"/><use transform="matrix(0.06234567901234567,0,0,0.06234567901234567,110.6012345679012,0)" xlink:href="#au"/><use transform="matrix(0.06234567901234567,0,0,0.06234567901234567,123.07037037037034,0)" xlink:href="#aK"/><use transform="matrix(0.06234567901234567,0,0,0.06234567901234567,130.48950617283947,0)" xlink:href="#aB"/><use transform="matrix(0.06234567901234567,0,0,0.06234567901234567,135.41481481481478,0)" xlink:href="#av"/><use transform="matrix(0.06234567901234567,0,0,0.06234567901234567,141.64938271604933,0)" xlink:href="#bb"/></g><path d="M233-177c-1 41-23 64-60 70L243 0h-38l-65-103H63V0H30v-248c88 3 205-21 203 71zM63-129c60-2 137 13 137-47 0-61-80-42-137-45v92" id="bc"/><g id="G"><use transform="matrix(0.06234567901234567,0,0,0.06234567901234567,0,0)" xlink:href="#bc"/><use transform="matrix(0.06234567901234567,0,0,0.06234567901234567,16.147530864197527,0)" xlink:href="#az"/><use transform="matrix(0.06234567901234567,0,0,0.06234567901234567,28.61666666666666,0)" xlink:href="#aU"/><use transform="matrix(0.06234567901234567,0,0,0.06234567901234567,47.25802469135802,0)" xlink:href="#ax"/><use transform="matrix(0.06234567901234567,0,0,0.06234567901234567,59.72716049382715,0)" xlink:href="#aT"/><use transform="matrix(0.06234567901234567,0,0,0.06234567901234567,70.94938271604937,0)" xlink:href="#au"/><use transform="matrix(0.06234567901234567,0,0,0.06234567901234567,83.41851851851851,0)" xlink:href="#ay"/></g><path d="M106-169C34-169 62-67 57 0H25v-261h32l-1 103c12-21 28-36 61-36 89 0 53 116 60 194h-32v-121c2-32-8-49-39-48" id="bd"/><g id="H"><use transform="matrix(0.06234567901234567,0,0,0.06234567901234567,0,0)" xlink:href="#aZ"/><use transform="matrix(0.06234567901234567,0,0,0.06234567901234567,14.96296296296296,0)" xlink:href="#ay"/><use transform="matrix(0.06234567901234567,0,0,0.06234567901234567,19.888271604938268,0)" xlink:href="#aR"/><use transform="matrix(0.06234567901234567,0,0,0.06234567901234567,32.3574074074074,0)" xlink:href="#ax"/><use transform="matrix(0.06234567901234567,0,0,0.06234567901234567,44.82654320987653,0)" xlink:href="#aK"/><use transform="matrix(0.06234567901234567,0,0,0.06234567901234567,52.24567901234567,0)" xlink:href="#aB"/><use transform="matrix(0.06234567901234567,0,0,0.06234567901234567,57.170987654320975,0)" xlink:href="#av"/><use transform="matrix(0.06234567901234567,0,0,0.06234567901234567,63.40555555555554,0)" xlink:href="#bd"/><use transform="matrix(0.06234567901234567,0,0,0.06234567901234567,75.87469135802468,0)" xlink:href="#aU"/></g><path d="M160-131c35 5 61 23 61 61C221 17 115-2 30 0v-248c76 3 177-17 177 60 0 33-19 50-47 57zm-97-11c50-1 110 9 110-42 0-47-63-36-110-37v79zm0 115c55-2 124 14 124-45 0-56-70-42-124-44v89" id="be"/><g id="I"><use transform="matrix(0.06234567901234567,0,0,0.06234567901234567,0,0)" xlink:href="#be"/><use transform="matrix(0.06234567901234567,0,0,0.06234567901234567,14.96296296296296,0)" xlink:href="#az"/><use transform="matrix(0.06234567901234567,0,0,0.06234567901234567,27.432098765432094,0)" xlink:href="#aC"/><use transform="matrix(0.06234567901234567,0,0,0.06234567901234567,39.90123456790123,0)" xlink:href="#aA"/><use transform="matrix(0.06234567901234567,0,0,0.06234567901234567,51.12345679012345,0)" xlink:href="#bd"/><use transform="matrix(0.06234567901234567,0,0,0.06234567901234567,63.59259259259258,0)" xlink:href="#aU"/><use transform="matrix(0.06234567901234567,0,0,0.06234567901234567,82.23395061728394,0)" xlink:href="#au"/><use transform="matrix(0.06234567901234567,0,0,0.06234567901234567,94.70308641975308,0)" xlink:href="#aK"/><use transform="matrix(0.06234567901234567,0,0,0.06234567901234567,102.1222222222222,0)" xlink:href="#aY"/><use transform="matrix(0.06234567901234567,0,0,0.06234567901234567,113.34444444444442,0)" xlink:href="#aB"/><use transform="matrix(0.06234567901234567,0,0,0.06234567901234567,118.26975308641973,0)" xlink:href="#aC"/><use transform="matrix(0.06234567901234567,0,0,0.06234567901234567,130.73888888888885,0)" xlink:href="#aR"/></g><path d="M85-194c31 0 48 13 60 33l-1-100h32l1 261h-30c-2-10 0-23-3-31C134-8 116 4 85 4 32 4 16-35 15-94c0-66 23-100 70-100zm9 24c-40 0-46 34-46 75 0 40 6 74 45 74 42 0 51-32 51-76 0-42-9-74-50-73" id="bf"/><g id="J"><use transform="matrix(0.06234567901234567,0,0,0.06234567901234567,0,0)" xlink:href="#aW"/><use transform="matrix(0.06234567901234567,0,0,0.06234567901234567,18.641358024691353,0)" xlink:href="#ax"/><use transform="matrix(0.06234567901234567,0,0,0.06234567901234567,31.110493827160486,0)" xlink:href="#bf"/><use transform="matrix(0.06234567901234567,0,0,0.06234567901234567,43.57962962962962,0)" xlink:href="#az"/><use transform="matrix(0.06234567901234567,0,0,0.06234567901234567,56.048765432098755,0)" xlink:href="#ay"/></g><g id="K"><use transform="matrix(0.06234567901234567,0,0,0.06234567901234567,0,0)" xlink:href="#aw"/><use transform="matrix(0.06234567901234567,0,0,0.06234567901234567,16.147530864197527,0)" xlink:href="#ax"/><use transform="matrix(0.06234567901234567,0,0,0.06234567901234567,28.61666666666666,0)" xlink:href="#aC"/><use transform="matrix(0.06234567901234567,0,0,0.06234567901234567,41.08580246913579,0)" xlink:href="#aQ"/><use transform="matrix(0.06234567901234567,0,0,0.06234567901234567,52.308024691358014,0)" xlink:href="#av"/><use transform="matrix(0.06234567901234567,0,0,0.06234567901234567,58.542592592592584,0)" xlink:href="#aK"/><use transform="matrix(0.06234567901234567,0,0,0.06234567901234567,65.96172839506171,0)" xlink:href="#aJ"/><use transform="matrix(0.06234567901234567,0,0,0.06234567901234567,78.43086419753084,0)" xlink:href="#aA"/><use transform="matrix(0.06234567901234567,0,0,0.06234567901234567,89.65308641975305,0)" xlink:href="#av"/><use transform="matrix(0.06234567901234567,0,0,0.06234567901234567,95.88765432098762,0)" xlink:href="#aB"/><use transform="matrix(0.06234567901234567,0,0,0.06234567901234567,100.81296296296293,0)" xlink:href="#ax"/><use transform="matrix(0.06234567901234567,0,0,0.06234567901234567,113.28209876543207,0)" xlink:href="#aC"/></g><g id="L"><use transform="matrix(0.06234567901234567,0,0,0.06234567901234567,0,0)" xlink:href="#aF"/><use transform="matrix(0.06234567901234567,0,0,0.06234567901234567,14.96296296296296,0)" xlink:href="#az"/><use transform="matrix(0.06234567901234567,0,0,0.06234567901234567,27.432098765432094,0)" xlink:href="#aK"/><use transform="matrix(0.06234567901234567,0,0,0.06234567901234567,34.85123456790123,0)" xlink:href="#aP"/><use transform="matrix(0.06234567901234567,0,0,0.06234567901234567,41.0858024691358,0)" xlink:href="#ax"/><use transform="matrix(0.06234567901234567,0,0,0.06234567901234567,53.55493827160493,0)" xlink:href="#aK"/><use transform="matrix(0.06234567901234567,0,0,0.06234567901234567,60.97407407407407,0)" xlink:href="#aU"/><use transform="matrix(0.06234567901234567,0,0,0.06234567901234567,79.61543209876542,0)" xlink:href="#au"/><use transform="matrix(0.06234567901234567,0,0,0.06234567901234567,92.08456790123455,0)" xlink:href="#aC"/><use transform="matrix(0.06234567901234567,0,0,0.06234567901234567,104.55370370370369,0)" xlink:href="#aA"/><use transform="matrix(0.06234567901234567,0,0,0.06234567901234567,115.7759259259259,0)" xlink:href="#az"/></g><g id="M"><use transform="matrix(0.06234567901234567,0,0,0.06234567901234567,0,0)" xlink:href="#aW"/><use transform="matrix(0.06234567901234567,0,0,0.06234567901234567,18.641358024691353,0)" xlink:href="#az"/><use transform="matrix(0.06234567901234567,0,0,0.06234567901234567,31.110493827160486,0)" xlink:href="#av"/><use transform="matrix(0.06234567901234567,0,0,0.06234567901234567,37.34506172839505,0)" xlink:href="#aK"/><use transform="matrix(0.06234567901234567,0,0,0.06234567901234567,44.76419753086419,0)" xlink:href="#aB"/><use transform="matrix(0.06234567901234567,0,0,0.06234567901234567,49.689506172839494,0)" xlink:href="#aA"/><use transform="matrix(0.06234567901234567,0,0,0.06234567901234567,60.911728395061715,0)" xlink:href="#aQ"/></g><g id="N"><use transform="matrix(0.06234567901234567,0,0,0.06234567901234567,0,0)" xlink:href="#aL"/><use transform="matrix(0.06234567901234567,0,0,0.06234567901234567,14.96296296296296,0)" xlink:href="#aT"/><use transform="matrix(0.06234567901234567,0,0,0.06234567901234567,26.18518518518518,0)" xlink:href="#au"/><use transform="matrix(0.06234567901234567,0,0,0.06234567901234567,38.654320987654316,0)" xlink:href="#ay"/><use transform="matrix(0.06234567901234567,0,0,0.06234567901234567,43.57962962962962,0)" xlink:href="#aJ"/><use transform="matrix(0.06234567901234567,0,0,0.06234567901234567,56.048765432098755,0)" xlink:href="#au"/><use transform="matrix(0.06234567901234567,0,0,0.06234567901234567,68.51790123456789,0)" xlink:href="#av"/><use transform="matrix(0.06234567901234567,0,0,0.06234567901234567,74.75246913580246,0)" xlink:href="#aB"/><use transform="matrix(0.06234567901234567,0,0,0.06234567901234567,79.67777777777776,0)" xlink:href="#ax"/><use transform="matrix(0.06234567901234567,0,0,0.06234567901234567,92.14691358024689,0)" xlink:href="#aC"/></g><path d="M9 0v-24l116-142H16v-24h144v24L44-24h123V0H9" id="bg"/><g id="O"><use transform="matrix(0.06234567901234567,0,0,0.06234567901234567,0,0)" xlink:href="#aS"/><use transform="matrix(0.06234567901234567,0,0,0.06234567901234567,17.456790123456788,0)" xlink:href="#aV"/><use transform="matrix(0.06234567901234567,0,0,0.06234567901234567,29.92592592592592,0)" xlink:href="#av"/><use transform="matrix(0.06234567901234567,0,0,0.06234567901234567,36.16049382716049,0)" xlink:href="#aB"/><use transform="matrix(0.06234567901234567,0,0,0.06234567901234567,41.08580246913579,0)" xlink:href="#aU"/><use transform="matrix(0.06234567901234567,0,0,0.06234567901234567,59.72716049382714,0)" xlink:href="#aB"/><use transform="matrix(0.06234567901234567,0,0,0.06234567901234567,64.65246913580245,0)" xlink:href="#bg"/><use transform="matrix(0.06234567901234567,0,0,0.06234567901234567,75.87469135802466,0)" xlink:href="#au"/><use transform="matrix(0.06234567901234567,0,0,0.06234567901234567,88.34382716049379,0)" xlink:href="#av"/><use transform="matrix(0.06234567901234567,0,0,0.06234567901234567,94.57839506172836,0)" xlink:href="#aB"/><use transform="matrix(0.06234567901234567,0,0,0.06234567901234567,99.50370370370366,0)" xlink:href="#ax"/><use transform="matrix(0.06234567901234567,0,0,0.06234567901234567,111.97283950617279,0)" xlink:href="#aC"/></g><g id="P"><use transform="matrix(0.06234567901234567,0,0,0.06234567901234567,0,0)" xlink:href="#aF"/><use transform="matrix(0.06234567901234567,0,0,0.06234567901234567,14.96296296296296,0)" xlink:href="#aK"/><use transform="matrix(0.06234567901234567,0,0,0.06234567901234567,22.382098765432094,0)" xlink:href="#az"/><use transform="matrix(0.06234567901234567,0,0,0.06234567901234567,34.85123456790123,0)" xlink:href="#bf"/><use transform="matrix(0.06234567901234567,0,0,0.06234567901234567,47.32037037037036,0)" xlink:href="#aB"/><use transform="matrix(0.06234567901234567,0,0,0.06234567901234567,52.24567901234567,0)" xlink:href="#aA"/><use transform="matrix(0.06234567901234567,0,0,0.06234567901234567,63.46790123456789,0)" xlink:href="#av"/><use transform="matrix(0.06234567901234567,0,0,0.06234567901234567,69.70246913580246,0)" xlink:href="#aB"/><use transform="matrix(0.06234567901234567,0,0,0.06234567901234567,74.62777777777777,0)" xlink:href="#aT"/><use transform="matrix(0.06234567901234567,0,0,0.06234567901234567,85.84999999999998,0)" xlink:href="#az"/></g><g id="Q"><use transform="matrix(0.06234567901234567,0,0,0.06234567901234567,0,0)" xlink:href="#aZ"/><use transform="matrix(0.06234567901234567,0,0,0.06234567901234567,14.96296296296296,0)" xlink:href="#aC"/><use transform="matrix(0.06234567901234567,0,0,0.06234567901234567,27.432098765432094,0)" xlink:href="#au"/><use transform="matrix(0.06234567901234567,0,0,0.06234567901234567,39.90123456790123,0)" xlink:href="#ay"/><use transform="matrix(0.06234567901234567,0,0,0.06234567901234567,44.82654320987653,0)" xlink:href="#bb"/><use transform="matrix(0.06234567901234567,0,0,0.06234567901234567,56.048765432098755,0)" xlink:href="#aQ"/><use transform="matrix(0.06234567901234567,0,0,0.06234567901234567,67.27098765432098,0)" xlink:href="#aB"/><use transform="matrix(0.06234567901234567,0,0,0.06234567901234567,72.19629629629628,0)" xlink:href="#aQ"/></g><g id="R"><use transform="matrix(0.06234567901234567,0,0,0.06234567901234567,0,0)" xlink:href="#aL"/><use transform="matrix(0.06234567901234567,0,0,0.06234567901234567,14.96296296296296,0)" xlink:href="#aM"/><use transform="matrix(0.06234567901234567,0,0,0.06234567901234567,26.18518518518518,0)" xlink:href="#aV"/><use transform="matrix(0.06234567901234567,0,0,0.06234567901234567,38.654320987654316,0)" xlink:href="#ax"/><use transform="matrix(0.06234567901234567,0,0,0.06234567901234567,51.12345679012345,0)" xlink:href="#aK"/><use transform="matrix(0.06234567901234567,0,0,0.06234567901234567,58.542592592592584,0)" xlink:href="#av"/><use transform="matrix(0.06234567901234567,0,0,0.06234567901234567,64.77716049382715,0)" xlink:href="#au"/><use transform="matrix(0.06234567901234567,0,0,0.06234567901234567,77.2462962962963,0)" xlink:href="#av"/><use transform="matrix(0.06234567901234567,0,0,0.06234567901234567,83.48086419753086,0)" xlink:href="#aB"/><use transform="matrix(0.06234567901234567,0,0,0.06234567901234567,88.40617283950617,0)" xlink:href="#ax"/><use transform="matrix(0.06234567901234567,0,0,0.06234567901234567,100.8753086419753,0)" xlink:href="#aC"/></g></defs></g></svg>